/* XPM */
static char * bitbean32_xpm[] = {
"32 32 288 2",
"  	c None",
". 	c #5F6D4C",
"+ 	c #63744C",
"@ 	c #566542",
"# 	c #4A563A",
"$ 	c #A0C171",
"% 	c #B7E07F",
"& 	c #AEDD6D",
"* 	c #A3D85B",
"= 	c #99CF50",
"- 	c #87B849",
"; 	c #53663B",
"> 	c #789255",
", 	c #B3DF76",
"' 	c #CDEBA3",
") 	c #EDFBD9",
"! 	c #E6F8CD",
"~ 	c #A3D464",
"{ 	c #90C848",
"] 	c #91CD47",
"^ 	c #6A903D",
"/ 	c #2F2D30",
"( 	c #AADE62",
"_ 	c #BFE885",
": 	c #646662",
"< 	c #585A55",
"[ 	c #F9FFE9",
"} 	c #E3F6C9",
"| 	c #87C23D",
"1 	c #88C242",
"2 	c #85C03F",
"3 	c #699239",
"4 	c #4E5C3C",
"5 	c #A6DD5B",
"6 	c #C0E096",
"7 	c #29272C",
"8 	c #29282A",
"9 	c #E2EDD3",
"0 	c #F1FEDD",
"a 	c #81BD38",
"b 	c #84BE3F",
"c 	c #80BB3C",
"d 	c #7FBD39",
"e 	c #526C34",
"f 	c #67873E",
"g 	c #A3BC80",
"h 	c #777E6E",
"i 	c #C8D1BB",
"j 	c #C5CDBA",
"k 	c #FBFFEC",
"l 	c #B8DC8B",
"m 	c #80BC3B",
"n 	c #7FBA3B",
"o 	c #7BB738",
"p 	c #77B335",
"q 	c #6CA032",
"r 	c #67883A",
"s 	c #929B86",
"t 	c #414040",
"u 	c #F2FFD9",
"v 	c #C2E398",
"w 	c #B0D77E",
"x 	c #82BC3C",
"y 	c #7EB93A",
"z 	c #7AB637",
"A 	c #77B334",
"B 	c #73B031",
"C 	c #70AD2E",
"D 	c #425131",
"E 	c #475536",
"F 	c #A6D768",
"G 	c #BFDC9B",
"H 	c #97CA58",
"I 	c #83BD3D",
"J 	c #7AB139",
"K 	c #79B636",
"L 	c #75B233",
"M 	c #72AF30",
"N 	c #6EAC2D",
"O 	c #6BAA2A",
"P 	c #4B692E",
"Q 	c #77A23F",
"R 	c #84C03D",
"S 	c #83BE3F",
"T 	c #7DB73C",
"U 	c #6E9A37",
"V 	c #6D9E34",
"W 	c #75B232",
"X 	c #71AE2F",
"Y 	c #6DAB2C",
"Z 	c #6AA929",
"` 	c #66A526",
" .	c #5C9525",
"..	c #403632",
"+.	c #7EB53D",
"@.	c #7FB93A",
"#.	c #649036",
"$.	c #914230",
"%.	c #7B9F31",
"&.	c #6CAA2B",
"*.	c #69A928",
"=.	c #588729",
"-.	c #609C23",
";.	c #599E1F",
">.	c #C18720",
",.	c #594A2E",
"'.	c #424D35",
").	c #71A537",
"!.	c #73AC34",
"~.	c #70B831",
"{.	c #6EAE2E",
"].	c #68A628",
"^.	c #5F9A26",
"/.	c #5D9823",
"(.	c #4F7C25",
"_.	c #559C1B",
":.	c #BC8B1F",
"<.	c #FFB814",
"[.	c #6F5A29",
"}.	c #343433",
"|.	c #649530",
"1.	c #6AA82A",
"2.	c #66A527",
"3.	c #63A423",
"4.	c #57822A",
"5.	c #538822",
"6.	c #518520",
"7.	c #519817",
"8.	c #AC8121",
"9.	c #FEB414",
"0.	c #FCB711",
"a.	c #DFAA13",
"b.	c #A9861B",
"c.	c #716125",
"d.	c #665A2F",
"e.	c #383732",
"f.	c #323033",
"g.	c #6CA430",
"h.	c #6EAC2C",
"i.	c #6AA829",
"j.	c #5F9E24",
"k.	c #549221",
"l.	c #938A3A",
"m.	c #68822F",
"n.	c #446823",
"o.	c #4C9413",
"p.	c #8A6B25",
"q.	c #D2991A",
"r.	c #FFBD0E",
"s.	c #FDC00B",
"t.	c #FFC906",
"u.	c #FFD110",
"v.	c #FFD931",
"w.	c #9F8A40",
"x.	c #7C6A24",
"y.	c #F8B70F",
"z.	c #73842B",
"A.	c #6EAD2B",
"B.	c #68A728",
"C.	c #64A325",
"D.	c #60A422",
"E.	c #7C7924",
"F.	c #AC8D1B",
"G.	c #D6AA16",
"H.	c #575136",
"I.	c #4C8C14",
"J.	c #438A0F",
"K.	c #C2901B",
"L.	c #CC971A",
"M.	c #C59717",
"N.	c #FFC409",
"O.	c #FFC807",
"P.	c #FFCE1D",
"Q.	c #FFD83E",
"R.	c #6A603C",
"S.	c #E4AF0F",
"T.	c #F5AC15",
"U.	c #77A429",
"V.	c #67A628",
"W.	c #60A022",
"X.	c #508E21",
"Y.	c #C48520",
"Z.	c #FFB913",
"`.	c #94851B",
" +	c #4B9212",
".+	c #47880F",
"++	c #3A7F0B",
"@+	c #DD9C1A",
"#+	c #FFBC0F",
"$+	c #D5A314",
"%+	c #F1BC0B",
"&+	c #FFCC09",
"*+	c #E6BD2B",
"=+	c #A68F3E",
"-+	c #6A542B",
";+	c #5F9329",
">+	c #63A224",
",+	c #5F9F21",
"'+	c #5B9C1E",
")+	c #569A1B",
"!+	c #635C29",
"~+	c #A37126",
"{+	c #4D791A",
"]+	c #46890D",
"^+	c #40800A",
"/+	c #2D660E",
"(+	c #FAB115",
"_+	c #FDBC0E",
":+	c #FCC10B",
"<+	c #FFCB05",
"[+	c #8A7526",
"}+	c #5B9225",
"|+	c #5E9E20",
"1+	c #5A9B1D",
"2+	c #57981A",
"3+	c #539417",
"4+	c #509513",
"5+	c #437F17",
"6+	c #478C0D",
"7+	c #407F0A",
"8+	c #3A7806",
"9+	c #2B491E",
"0+	c #FFBD10",
"a+	c #FDBD0C",
"b+	c #DEB10F",
"c+	c #4D7527",
"d+	c #5A9C1C",
"e+	c #559719",
"f+	c #529416",
"g+	c #4E9113",
"h+	c #4B8E10",
"i+	c #478A0D",
"j+	c #40810A",
"k+	c #397806",
"l+	c #316E03",
"m+	c #83731B",
"n+	c #FFBD0F",
"o+	c #FBC408",
"p+	c #695B28",
"q+	c #312F34",
"r+	c #549419",
"s+	c #519315",
"t+	c #4D9012",
"u+	c #4A8D0F",
"v+	c #468A0C",
"w+	c #408309",
"x+	c #3A7A06",
"y+	c #346E05",
"z+	c #2E570E",
"A+	c #423D2F",
"B+	c #D39F15",
"C+	c #DAA910",
"D+	c #816C22",
"E+	c #39482C",
"F+	c #4B8D12",
"G+	c #498E0D",
"H+	c #45890B",
"I+	c #418608",
"J+	c #3A7C05",
"K+	c #356D07",
"L+	c #2E5212",
"M+	c #333134",
"N+	c #322D35",
"O+	c #3B5D1E",
"P+	c #3E7511",
"Q+	c #39720C",
"R+	c #34650D",
"S+	c #304322",
"T+	c #2F4022",
"U+	c #30352E",
"V+	c #355712",
"W+	c #2F4222",
"X+	c #7A5D38",
"Y+	c #284D11",
"Z+	c #A67E34",
"`+	c #C38D38",
" @	c #354424",
".@	c #2D5D05",
"+@	c #DA983C",
"@@	c #2F2E33",
"#@	c #9E7636",
"$@	c #B78639",
"%@	c #7E6136",
"&@	c #967137",
"*@	c #8A6937",
"=@	c #AC7F38",
"-@	c #947037",
";@	c #EBA73B",
"                                                                ",
"                                                                ",
"                . + @ #                                         ",
"              $ % & * = - ;                                     ",
"            > , ' ) ! ~ { ] ^                                   ",
"          / ( _ : < [ } | 1 2 3                                 ",
"          4 5 6 7 8 9 0 a b c d e                               ",
"          f g h i j k l m n o p q                               ",
"          r s t u v w x y z A B C D                             ",
"          E F G H I n J K L M N O P                             ",
"            Q R S T U V W X Y Z `  ...                          ",
"              +.@.#.$.%.C &.*.=.-.;.>.,.                        ",
"              '.).!.~.{.&.].^./.(._.:.<.[.                      ",
"                }.|.N 1.2.3.4.5.6.7.8.9.0.a.b.c.d.e.            ",
"              f.g.h.i.` j.k.l.m.n.o.p.q.r.s.t.u.v.w.            ",
"          x.y.z.A.B.C.D.E.F.G.H.I.J.K.L.M.N.O.P.Q.R.            ",
"          S.T.U.V.C.W.X.Y.Z.`. +.+++@+#+$+%+&+*+=+              ",
"            -+;+>+,+'+)+!+~+{+]+^+/+(+_+:+<+[+                  ",
"              }+|+1+2+3+4+5+6+7+8+9+0+a+N.b+                    ",
"              c+d+e+f+g+h+i+j+k+l+m+n+s.o+p+                    ",
"              q+r+s+t+u+v+w+x+y+z+A+B+C+D+                      ",
"                E+F+G+H+I+J+K+L+M+                              ",
"                  N+O+P+Q+R+S+T+U+                              ",
"                    V+W+X+      Y+Z+`+                          ",
"                     @.@+@      @@#@$@                          ",
"                        %@&@        *@=@                        ",
"                          -@          ;@                        ",
"                                                                ",
"                                                                ",
"                                                                ",
"                                                                ",
"                                                                "};
